<?xml version="1.0" encoding="utf-8"?>
<!-- Generator: Adobe Illustrator 19.1.0, SVG Export Plug-In . SVG Version: 6.00 Build 0)  -->
<svg version="1.1" id="Layer_1" xmlns="http://www.w3.org/2000/svg" xmlns:xlink="http://www.w3.org/1999/xlink" x="0px" y="0px"
	 viewBox="141 -1 381 24" style="enable-background:new 141 -1 381 24;" xml:space="preserve">
<style type="text/css">
	.st0{fill:#FFFFFF;}
</style>
<g>
	<path class="st0" d="M163.6,1.6l0.5,4.8c0,0.2,0,0.4,0,0.5c0,0.3-0.1,0.5-0.4,0.5s-0.5-0.2-0.7-0.6c-0.9-1.8-2-3.2-3.4-4.3
		c-1.4-1.1-3-1.7-4.9-1.7c-2.4,0-4.2,1-5.6,3c-1.3,2-2,4.3-2,7c0,3,0.7,5.5,2.2,7.4s3.2,2.9,5.2,2.9c0.9,0,1.7-0.2,2.6-0.6
		c0.9-0.4,1.4-0.8,1.7-1.3c0.2-0.4,0.4-1.1,0.4-1.9c0-1.9-0.1-3-0.2-3.5s-0.4-0.8-0.7-1s-1-0.3-2.1-0.4c-0.4,0-0.6-0.2-0.6-0.5
		s0.2-0.5,0.6-0.5h2.5l7.7-0.2c0.3,0,0.5,0.1,0.5,0.4c0,0.2-0.1,0.3-0.2,0.3s-0.6,0.2-1.4,0.3c-0.6,0.1-1,0.3-1.1,0.6
		c-0.2,0.3-0.3,1.9-0.4,5c0,0.7,0,1.1-0.1,1.2s-0.7,0.5-2,1.1c-1.3,0.7-2.6,1.2-4,1.5s-2.7,0.5-4.1,0.5c-2.3,0-4.3-0.4-6.1-1.3
		s-3.2-2.2-4.3-3.8s-1.6-3.6-1.6-5.8c0-3.2,1.1-5.9,3.3-8.3c2.1-2.2,5.1-3.4,8.9-3.4c1.4,0,2.6,0.2,3.7,0.5s2.3,0.8,3.7,1.4
		c0.3,0.1,0.5,0.2,0.7,0.2c0.2,0,0.4-0.2,0.5-0.5c0.2-0.4,0.4-0.6,0.6-0.6C163.3,0.5,163.5,0.9,163.6,1.6z"/>
	<path class="st0" d="M180.6,10.6c1.5,0.2,2.7,0.7,3.7,1.4s1.7,2.1,2.2,4.1c0.5,1.9,1,3.2,1.5,3.8c0.5,0.6,1.3,1,2.2,1
		c0.5,0,0.8,0.2,0.8,0.5s-0.4,0.5-1.3,0.5l-6.4-0.2c-0.7-0.7-1.1-1.9-1.4-3.6c-0.3-2.2-0.6-3.7-1-4.6c-0.3-0.9-0.8-1.5-1.5-1.9
		c-0.7-0.4-1.4-0.6-2.3-0.6c-0.3,0-0.6,0-1,0c0,3.9,0,6.3,0,7.2c0,0.9,0.2,1.5,0.5,1.9c0.3,0.4,1,0.6,1.9,0.7c0.5,0,0.7,0.2,0.7,0.5
		s-0.2,0.4-0.6,0.4l-5.1-0.1c-0.7,0-1.6,0-2.6,0.1s-1.6,0.1-1.9,0.1c-0.5,0-0.7-0.2-0.7-0.5s0.2-0.5,0.6-0.5c0.6,0,1.2-0.2,1.7-0.5
		s0.8-1.6,0.8-3.9v-3.1v-6c0-3.1-0.1-5-0.4-5.6c-0.3-0.7-1-1-2.2-1.1c-0.5,0-0.7-0.2-0.7-0.5s0.3-0.5,0.9-0.5c3.1,0,5.8-0.1,7.9-0.2
		c1-0.1,1.8-0.1,2.6-0.1c2.5,0,4.5,0.5,5.9,1.5c1.4,1,2.1,2.3,2.1,3.9c0,1.1-0.3,2.1-1,2.9S185,9.1,184,9.5
		C183.2,10.3,182,10.5,180.6,10.6z M176.1,10c0.3,0,0.5,0,0.6,0c1,0,1.9-0.2,2.9-0.5c1-0.4,1.7-0.9,2.1-1.7c0.4-0.8,0.6-1.6,0.6-2.5
		c0-1.4-0.4-2.5-1.2-3.2c-0.8-0.8-1.9-1.2-3.2-1.2c-0.5,0-1.2,0.1-1.8,0.3C176.1,1.2,176.1,10,176.1,10z"/>
	<path class="st0" d="M203.4-0.4c2.2,0,4.2,0.4,5.9,1.3s3,2.2,4,3.9s1.5,3.6,1.5,5.6c0,3.1-1.2,5.8-3.5,8.2s-5.2,3.6-8.6,3.6
		c-3.1,0-5.8-1-8-3c-2.2-2-3.3-4.7-3.3-8c0-3.2,1.1-5.9,3.4-8.2C197.2,0.7,200-0.4,203.4-0.4z M209.2,10.9c0-3.4-0.6-5.9-1.7-7.6
		s-2.6-2.5-4.3-2.5s-3.2,0.8-4.3,2.5c-1.1,1.7-1.7,4.2-1.7,7.6c0,3.2,0.5,5.7,1.6,7.5c1.1,1.8,2.6,2.7,4.4,2.7c1.6,0,3-0.8,4.2-2.4
		C208.6,17,209.2,14.4,209.2,10.9z"/>
	<path class="st0" d="M229.9,0.6c0.1-0.1,0.3-0.4,0.4-0.7c0.2-0.3,0.4-0.5,0.6-0.5c0.3,0,0.5,0.2,0.5,0.7l0.6,4.6l0.1,0.5
		c0,0.3-0.1,0.4-0.4,0.4c-0.2,0-0.4-0.1-0.5-0.2s-0.3-0.4-0.6-1c-0.5-1-1.3-1.9-2.4-2.7s-2.2-1.2-3.3-1.2s-2,0.3-2.7,0.9
		s-1.1,1.4-1.1,2.3c0,0.7,0.3,1.4,1,2c0.7,0.6,1.9,1.2,3.8,1.7c3,0.8,5,1.9,6,3.1s1.6,2.6,1.6,4.1s-0.4,2.8-1.1,3.9
		c-0.8,1.1-1.7,1.9-2.7,2.5s-2.4,0.9-4.1,0.9c-0.9,0-1.9-0.1-2.9-0.4s-2-0.7-3.1-1.2c-0.2,0.3-0.4,0.6-0.6,1
		c-0.2,0.5-0.4,0.7-0.7,0.7c-0.3,0-0.4-0.3-0.5-0.9l-0.5-6c0-0.3,0-0.4,0-0.5c0-0.3,0.2-0.5,0.5-0.5c0.2,0,0.5,0.3,0.7,0.8
		c0.7,1.7,1.6,3,2.8,4.2c1.2,1.1,2.5,1.7,4,1.7c1.3,0,2.4-0.4,3.2-1.2c0.8-0.8,1.2-1.7,1.2-2.6c0-1-0.4-1.8-1.1-2.5
		c-0.7-0.7-2.1-1.3-4-1.9c-1.9-0.6-3.3-1.2-4.2-1.7c-0.9-0.6-1.6-1.3-2.2-2.3c-0.5-1-0.8-2-0.8-2.9c0-1.7,0.7-3.2,2-4.4
		s3.2-1.8,5.5-1.8C226.2-0.5,227.8-0.1,229.9,0.6z"/>
	<path class="st0" d="M247.1,22.3h-1.3l-3.1-8c-0.8-2-1.7-4.5-2.9-7.4c-1.2-2.9-1.9-4.6-2.3-5.1c-0.3-0.5-0.6-0.8-0.9-0.9
		c-0.3-0.2-0.7-0.2-1.2-0.3c-0.4,0-0.5-0.2-0.5-0.4c0-0.3,0.2-0.5,0.6-0.5l4.5,0.2c1.6,0,3.1-0.1,4.6-0.2c0.4,0,0.7,0,0.8,0
		c0.5,0,0.8,0.2,0.8,0.5c0,0.2-0.2,0.4-0.7,0.4c-1.3,0.2-1.9,0.7-1.9,1.7c0,1.7,1.5,6.3,4.4,13.7c1-2.4,1.9-4.9,2.8-7.4l1.6-4.6
		c0.2-0.6,0.3-1.1,0.3-1.6s-0.2-1-0.5-1.3c-0.4-0.4-0.8-0.6-1.2-0.6c-0.5,0-0.8-0.2-0.8-0.4c0-0.4,0.2-0.5,0.6-0.5
		c0.3,0,0.7,0,1.2,0c0.9,0.1,1.8,0.1,2.5,0.1c0.8,0,1.5,0,2.1-0.1c0.5-0.1,0.8-0.1,1.1-0.1c0.4,0,0.6,0.2,0.6,0.5s-0.2,0.5-0.6,0.5
		c-0.6,0.1-1.1,0.3-1.5,0.6c-0.4,0.3-0.8,0.8-1.2,1.5s-1.1,2.3-2,4.7l-2.9,7.6C248.5,18.9,247.5,21.2,247.1,22.3z"/>
	<path class="st0" d="M277.5,0c0.4,1.7,0.7,3.5,1,5.2c0,0.3-0.2,0.5-0.5,0.5c-0.2,0-0.4-0.2-0.6-0.5c-1.1-1.7-2.2-2.7-3.1-3.3
		c-0.9-0.5-2.3-0.8-4.1-0.8c-1,0-2,0.1-2.9,0.2c-0.2,2-0.3,4.1-0.3,6.4c0,0.4,0,1.1,0,2h1.3c0.8,0,1.5-0.1,2-0.3
		c0.6-0.2,1.1-0.7,1.5-1.4s0.6-1.2,0.7-1.4c0.1-0.4,0.3-0.5,0.5-0.5c0.3,0,0.5,0.1,0.5,0.4c0,0.1,0,0.2,0,0.3
		c-0.1,0.7-0.2,2.7-0.2,6.2c0,0.5,0,0.9,0.1,1.3c0,0.1,0,0.2,0,0.3c0,0.3-0.2,0.5-0.5,0.5c-0.2,0-0.4-0.3-0.6-0.9
		c-0.2-1-0.7-1.8-1.5-2.3s-2-0.8-3.7-0.8c-0.1,1.9-0.1,3.1-0.1,3.7c0,2.5,0,4,0.1,4.5c0.1,0.5,0.4,0.9,0.8,1.2s1.3,0.4,2.5,0.4
		c4.2,0,7-1.3,8.3-4c0.2-0.4,0.4-0.6,0.6-0.6c0.3,0,0.5,0.1,0.5,0.4c0,0.2,0,0.4-0.1,0.7l-1.1,4.8h-6c-1.7,0-3.3,0-4.7-0.1
		c-1.5-0.1-2.6-0.1-3.4-0.1c-0.9,0-2.3,0.1-4.2,0.2c-0.2,0-0.4,0-0.5,0c-0.5,0-0.8-0.2-0.8-0.5s0.2-0.5,0.6-0.5
		c1.1,0,1.8-0.3,2.2-0.9s0.6-1.8,0.6-3.6l0.1-8.5c0-2.9,0-4.7-0.1-5.4s-0.3-1.1-0.6-1.4S260.9,1,260,0.8c-0.4,0-0.5-0.2-0.5-0.5
		s0.2-0.5,0.6-0.5l4,0.1L277.5,0z"/>
	<path class="st0" d="M287.6-0.1c5.3,6,9.7,10.9,13.3,14.5c0-0.8,0-1.2,0-1.5V6.3c0-1.5-0.1-2.7-0.3-3.3c-0.2-0.7-0.6-1.2-1.1-1.6
		c-0.6-0.4-1.2-0.6-2-0.7c-0.4,0-0.6-0.2-0.6-0.5s0.2-0.5,0.6-0.5c0.2,0,0.5,0,0.8,0.1c0.6,0.1,1.6,0.1,2.8,0.1c1.5,0,2.7,0,3.5-0.1
		c0.3,0,0.6,0,0.8,0c0.4,0,0.6,0.2,0.6,0.5s-0.3,0.5-0.8,0.5c-0.7,0.1-1.3,0.4-2,0.9c-0.6,0.5-0.9,1.5-0.9,3.1l0.1,9.4l-0.1,7.1
		c0,0.6-0.2,0.9-0.6,0.9c-0.1,0-0.2,0-0.3-0.1c-0.1-0.1-0.9-0.8-2.3-2.3s-3.5-3.7-6.2-6.8c-2.7-3.1-4.7-5.3-5.8-6.6
		c0,0.3,0,3.1,0,8.4c0,1.6,0.1,2.9,0.2,3.8c0.1,0.9,0.6,1.6,1.3,2s1.4,0.6,2,0.6c0.4,0,0.6,0.1,0.6,0.4s-0.2,0.5-0.6,0.5
		c-0.3,0-0.6,0-1-0.1c-0.7-0.1-1.5-0.1-2.5-0.1c-1.6,0-2.8,0-3.6,0.1c-0.5,0.1-0.8,0.1-1,0.1c-0.4,0-0.6-0.2-0.6-0.5s0.3-0.4,1-0.5
		c1.3-0.1,2-0.5,2.3-1.3c0.3-0.8,0.5-1.8,0.5-3.1c0-5.7,0-9.2-0.1-10.5c-0.1-1.3-0.5-2.4-1.2-3.5c-0.7-1-1.6-1.6-2.7-1.8
		c-0.4-0.1-0.6-0.2-0.6-0.5c0-0.4,0.2-0.5,0.7-0.5c0.1,0,0.3,0,0.5,0c0.3,0,0.7,0,1.4,0C285-0.2,286.4-0.2,287.6-0.1z"/>
	<path class="st0" d="M319.9-0.4c2.2,0,4.2,0.4,5.9,1.3s3,2.2,4,3.9s1.5,3.6,1.5,5.6c0,3.1-1.2,5.8-3.5,8.2s-5.2,3.6-8.6,3.6
		c-3.1,0-5.8-1-8-3s-3.3-4.7-3.3-8c0-3.2,1.1-5.9,3.4-8.2C313.7,0.7,316.5-0.4,319.9-0.4z M325.7,10.9c0-3.4-0.6-5.9-1.7-7.6
		s-2.6-2.5-4.3-2.5c-1.7,0-3.2,0.8-4.3,2.5s-1.7,4.2-1.7,7.6c0,3.2,0.5,5.7,1.6,7.5c1.1,1.8,2.6,2.7,4.4,2.7c1.6,0,3-0.8,4.2-2.4
		C325.1,17,325.7,14.4,325.7,10.9z"/>
	<path class="st0" d="M345.8,10.6c1.5,0.2,2.7,0.7,3.7,1.4s1.7,2.1,2.2,4.1c0.5,1.9,1,3.2,1.5,3.8c0.5,0.6,1.3,1,2.2,1
		c0.5,0,0.8,0.2,0.8,0.5s-0.4,0.5-1.3,0.5l-6.4-0.2c-0.7-0.7-1.1-1.9-1.4-3.6c-0.3-2.2-0.6-3.7-1-4.6c-0.3-0.9-0.8-1.5-1.5-1.9
		s-1.4-0.6-2.3-0.6c-0.3,0-0.6,0-1,0c0,3.9,0,6.3,0,7.2c0,0.9,0.2,1.5,0.5,1.9c0.3,0.4,1,0.6,1.9,0.7c0.5,0,0.7,0.2,0.7,0.5
		s-0.2,0.4-0.6,0.4l-5.1-0.1c-0.7,0-1.6,0-2.6,0.1s-1.6,0.1-1.9,0.1c-0.5,0-0.7-0.2-0.7-0.5s0.2-0.5,0.6-0.5c0.6,0,1.2-0.2,1.7-0.5
		s0.8-1.6,0.8-3.9v-3.1v-6c0-3.1-0.1-5-0.4-5.6c-0.3-0.7-1-1-2.2-1.1c-0.5,0-0.7-0.2-0.7-0.5s0.3-0.5,0.9-0.5c3.1,0,5.8-0.1,7.9-0.2
		c1-0.1,1.8-0.1,2.6-0.1c2.5,0,4.5,0.5,5.9,1.5c1.4,1,2.1,2.3,2.1,3.9c0,1.1-0.3,2.1-1,2.9c-0.7,0.8-1.5,1.5-2.5,1.9
		C348.3,10.3,347.2,10.5,345.8,10.6z M341.3,10c0.3,0,0.5,0,0.6,0c1,0,1.9-0.2,2.9-0.5c1-0.4,1.7-0.9,2.1-1.7
		c0.4-0.8,0.6-1.6,0.6-2.5c0-1.4-0.4-2.5-1.2-3.2c-0.8-0.8-1.9-1.2-3.2-1.2c-0.5,0-1.2,0.1-1.8,0.3L341.3,10L341.3,10z"/>
	<path class="st0" d="M385.3,0l0.8,5v0.2c0,0.3-0.1,0.5-0.3,0.5c-0.2,0-0.3-0.1-0.5-0.4c-0.9-1.3-1.8-2.4-2.9-3.1
		c-1.1-0.7-2.8-1.1-5.2-1.1c-1.7,0-2.6,0.2-2.8,0.5c-0.2,0.3-0.3,3.1-0.3,8.2c1.2,0,2.2-0.1,2.8-0.3c0.7-0.2,1.2-0.5,1.5-0.9
		c0.4-0.4,0.7-1.2,1-2.4c0.1-0.3,0.2-0.5,0.4-0.5c0.3,0,0.5,0.2,0.5,0.6l-0.1,5.3c0,1.8-0.1,2.8-0.1,3s-0.2,0.2-0.4,0.2
		c-0.3,0-0.4-0.2-0.5-0.7c-0.1-1-0.5-1.8-1.1-2.4c-0.6-0.6-1.9-0.9-4-0.9V17c0,1.2,0.1,2.1,0.3,2.6s0.4,0.9,0.8,1
		c0.4,0.1,0.9,0.3,1.6,0.3c0.5,0,0.9,0,1,0.1c0.1,0.1,0.2,0.2,0.2,0.4c0,0.4-0.2,0.5-0.7,0.5s-1.3,0-2.6-0.1
		c-1.1-0.1-1.9-0.1-2.4-0.1L367,22c-0.5,0-0.8-0.2-0.8-0.5s0.3-0.5,1-0.5c1.1,0,1.8-0.5,2-1.5c0.2-1,0.3-4.5,0.3-10.5
		c0-3.9-0.1-6.2-0.4-7c-0.3-0.8-1-1.1-2.1-1.1h-0.4c-0.4,0-0.6-0.2-0.6-0.5s0.3-0.5,1-0.5h18.3V0z"/>
	<path class="st0" d="M388.2-0.2c0.4,0,1.2,0,2.4,0.1c0.9,0,1.6,0.1,2.2,0.1l5.1-0.1c0.4,0,0.6,0.1,0.6,0.4s-0.2,0.4-0.6,0.5
		c-0.9,0.1-1.5,0.3-1.8,0.5c-0.3,0.2-0.5,0.8-0.7,1.7s-0.2,2.8-0.2,5.9c0,3.5,0.1,6.2,0.2,8.1c0.1,1.9,0.3,3.1,0.7,3.5
		c0.3,0.4,0.9,0.7,1.7,0.7c0.5,0,0.8,0.1,0.8,0.4c0,0.4-0.3,0.6-0.9,0.6c-0.2,0-0.4,0-0.7,0c-2.1-0.1-3.5-0.2-4.3-0.2
		c-1.7,0-2.9,0-3.7,0.1c-0.4,0-0.7,0.1-0.9,0.1c-0.4,0-0.6-0.2-0.6-0.5s0.2-0.4,0.5-0.4c0.9-0.1,1.6-0.4,1.9-0.8
		c0.3-0.4,0.5-1.4,0.6-2.9c0.1-1.5,0.1-3.9,0.1-7.2c0-3.4-0.1-5.7-0.2-6.9s-0.3-1.9-0.6-2.1c-0.3-0.3-0.8-0.4-1.6-0.5
		c-0.4,0-0.6-0.2-0.6-0.5C387.6,0,387.8-0.2,388.2-0.2z"/>
	<path class="st0" d="M413.2,0.6c0.1-0.1,0.3-0.4,0.4-0.7c0.2-0.3,0.4-0.5,0.6-0.5c0.3,0,0.5,0.2,0.5,0.7l0.6,4.5l0.1,0.5
		c0,0.3-0.1,0.4-0.4,0.4c-0.2,0-0.4-0.1-0.5-0.2s-0.3-0.4-0.6-1c-0.5-1-1.3-1.9-2.4-2.7s-2.2-1.2-3.3-1.2c-1.1,0-2,0.3-2.7,0.9
		s-1.1,1.4-1.1,2.3c0,0.7,0.3,1.4,1,2s1.9,1.2,3.8,1.7c3,0.8,5,1.9,6,3.1s1.6,2.6,1.6,4.1s-0.4,2.8-1.1,3.9
		c-0.8,1.1-1.7,1.9-2.7,2.5s-2.4,0.9-4.1,0.9c-0.9,0-1.9-0.1-2.9-0.4s-2-0.7-3.1-1.2c-0.2,0.3-0.4,0.6-0.6,1
		c-0.2,0.5-0.4,0.7-0.7,0.7c-0.3,0-0.4-0.3-0.5-0.9l-0.5-6c0-0.3,0-0.4,0-0.5c0-0.3,0.2-0.5,0.5-0.5c0.2,0,0.5,0.3,0.7,0.8
		c0.7,1.7,1.6,3,2.8,4.2c1.2,1.1,2.5,1.7,4,1.7c1.3,0,2.4-0.4,3.2-1.2c0.8-0.8,1.2-1.7,1.2-2.6c0-1-0.4-1.8-1.1-2.5
		c-0.7-0.7-2.1-1.3-4-1.9c-1.9-0.6-3.3-1.2-4.2-1.7c-0.9-0.6-1.6-1.3-2.2-2.3c-0.5-1-0.8-2-0.8-2.9c0-1.7,0.7-3.2,2-4.4
		s3.2-1.8,5.5-1.8C409.4-0.5,411.1-0.1,413.2,0.6z"/>
	<path class="st0" d="M435.6,9.9l0.1-5c0-1.4-0.1-2.4-0.4-3S434.4,1,433.5,1c-0.8,0-1.1-0.2-1.1-0.5s0.2-0.5,0.7-0.5s1.3,0,2.3,0.1
		c1.3,0.1,2.1,0.1,2.2,0.1c1.9,0,3.5,0,4.9-0.1c0.3,0,0.5,0,0.6,0c0.4,0,0.6,0.2,0.6,0.5s-0.2,0.5-0.7,0.5c-0.8,0-1.3,0.1-1.7,0.3
		c-0.3,0.2-0.6,0.5-0.7,0.9s-0.2,1.9-0.3,4.4c-0.1,2.5-0.1,4.2-0.1,5.2c0,3.9,0,6.3,0.1,7.2c0,0.9,0.2,1.5,0.6,1.8
		c0.3,0.3,0.9,0.5,1.8,0.5c0.5,0,0.8,0.2,0.8,0.5s-0.2,0.4-0.6,0.4c-0.1,0-0.4,0-0.9,0l-4.6-0.2c-0.3,0-0.8,0-1.6,0.1
		c-1.5,0.1-2.5,0.1-2.9,0.1s-0.6-0.2-0.6-0.5s0.2-0.4,0.5-0.4c0.8,0,1.4-0.1,1.7-0.4c0.4-0.3,0.6-0.9,0.8-1.9s0.2-3,0.2-6
		c0-0.3,0-0.8,0-1.4c-1.9-0.1-3.7-0.1-5.1-0.1c-1.7,0-3.1,0.1-4.1,0.2c-0.1,2.2-0.2,4.2-0.2,6c0,1.3,0.1,2.2,0.4,2.7
		s0.9,0.8,1.8,0.8c0.4,0,0.6,0.2,0.6,0.5s-0.2,0.5-0.7,0.5c-0.2,0-0.4,0-0.7,0c-1.3-0.1-2.7-0.2-4.1-0.2c-0.7,0-1.6,0-2.7,0.1
		c-0.8,0-1.3,0.1-1.5,0.1c-0.6,0-0.9-0.2-0.9-0.5s0.2-0.4,0.7-0.5c0.9-0.1,1.4-0.3,1.7-0.5c0.3-0.3,0.5-0.8,0.7-1.6
		c0.1-0.8,0.2-3,0.3-6.6c0-3.6,0-5.6,0-5.9c0-1.6-0.1-2.8-0.2-3.6c-0.1-0.7-0.3-1.2-0.6-1.5c-0.3-0.3-0.7-0.4-1.3-0.5
		c-0.4-0.1-0.7-0.1-0.8-0.2c-0.1-0.1-0.2-0.2-0.2-0.4c0-0.3,0.2-0.5,0.6-0.5c0.5,0,1.3,0,2.4,0.1c0.6,0,1.3,0.1,2.1,0.1l4.7-0.2
		c0.5,0,0.8,0.2,0.8,0.5S429,1,428.5,1c-0.7,0-1.2,0.1-1.5,0.3s-0.5,0.5-0.6,1s-0.2,1.5-0.2,3V10c1.4,0.1,2.9,0.2,4.5,0.2
		C432.5,10.1,434.1,10,435.6,9.9z"/>
	<path class="st0" d="M466.4,9.9c2.3,0.5,4,1.2,5.1,2.2s1.7,2.3,1.7,3.8c0,1.3-0.4,2.4-1.3,3.4c-0.8,1-1.9,1.7-3.1,2s-3,0.5-5.3,0.5
		c-0.6,0-1.5,0-2.7-0.1c-1-0.1-1.8-0.1-2.3-0.1c-0.8,0-1.8,0-3,0.1c-0.5,0-0.9,0.1-1.1,0.1c-0.4,0-0.6-0.2-0.6-0.5
		c0-0.2,0.2-0.4,0.5-0.4c0.7-0.1,1.2-0.2,1.5-0.4c0.3-0.1,0.6-0.4,0.8-0.8c0.2-0.4,0.3-0.9,0.3-1.7l0.1-7.7c0-2.4,0-4.3-0.1-5.8
		c-0.1-1.4-0.2-2.4-0.3-2.8c-0.1-0.4-0.3-0.7-0.6-0.9c-0.2-0.2-0.6-0.3-1.1-0.3c-0.4,0-0.7-0.1-0.9-0.1c-0.1-0.1-0.2-0.2-0.2-0.4
		s0.1-0.4,0.4-0.4c0.3-0.1,1-0.1,2.2-0.1c2.2,0,4.3-0.1,6.2-0.2c1.1-0.1,2.1-0.1,2.7-0.1c2,0,3.7,0.4,4.9,1.3s1.8,2.1,1.8,3.6
		C472.2,6.9,470.2,8.8,466.4,9.9z M461.8,9.7c3.8,0,5.7-1.6,5.7-4.9c0-1.4-0.3-2.5-1-3.2s-1.5-1.1-2.4-1.1c-0.6,0-1.4,0.2-2.3,0.5
		c-0.1,1.1-0.1,2.3-0.1,3.5C461.7,5.4,461.7,7.2,461.8,9.7z M461.8,11c-0.1,2.3-0.1,4.3-0.1,5.8c0,2.1,0.1,3.2,0.2,3.5
		c0.2,0.3,0.7,0.4,1.6,0.4c1.6,0,2.8-0.4,3.6-1.3c0.8-0.9,1.2-2,1.2-3.5s-0.4-2.7-1.2-3.7c-0.8-1-2.1-1.4-3.7-1.4
		C462.9,10.9,462.4,10.9,461.8,11z"/>
	<path class="st0" d="M485.5-0.7h1.1c1.5,3.2,3.5,8.1,6.2,14.9c1.2,3.1,2.1,5,2.5,5.7c0.5,0.7,1.2,1.1,2.2,1.2
		c0.3,0,0.5,0.2,0.5,0.4c0,0.3-0.2,0.5-0.6,0.5c-0.2,0-0.8,0-1.8-0.1c-1.2-0.1-2.1-0.1-2.9-0.1s-1.8,0-3,0.1
		c-0.9,0.1-1.5,0.1-1.8,0.1c-0.5,0-0.8-0.2-0.8-0.5c0-0.2,0.2-0.4,0.5-0.4c1.4-0.1,2-0.7,2-1.6c0-0.4-0.2-1.3-0.6-2.4
		c-0.4-1.2-0.8-2.3-1.3-3.2c-0.7,0-1.3,0-1.7,0c-2.2,0-4,0-5.2,0c-1,2.6-1.4,4.3-1.4,5.2c0,0.6,0.2,1.1,0.7,1.4s1,0.5,1.5,0.6
		c0.4,0,0.6,0.2,0.6,0.5S482,22,481.5,22c-0.2,0-0.6,0-1.4-0.1c-1-0.1-1.7-0.1-2.1-0.1c-0.9,0-1.7,0.1-2.5,0.2c-0.2,0-0.4,0-0.5,0
		c-0.4,0-0.6-0.2-0.6-0.5c0-0.2,0.1-0.4,0.4-0.5c0.7-0.2,1.2-0.4,1.6-0.7s0.8-0.8,1.2-1.6c0.4-0.8,1-2,1.6-3.8
		C480.8,11.1,482.8,5.9,485.5-0.7z M484.4,5.1l-2.9,7.4l5.9-0.1c-0.3-0.9-0.8-2.1-1.4-3.6C485.2,7.2,484.7,5.9,484.4,5.1z"/>
	<path class="st0" d="M511.3,10.6c1.5,0.2,2.7,0.7,3.7,1.4s1.7,2.1,2.2,4.1c0.5,1.9,1,3.2,1.5,3.8c0.5,0.6,1.3,1,2.2,1
		c0.5,0,0.8,0.2,0.8,0.5s-0.4,0.5-1.3,0.5l-6.4-0.2c-0.7-0.7-1.1-1.9-1.4-3.6c-0.3-2.2-0.6-3.7-1-4.6c-0.3-0.9-0.8-1.5-1.5-1.9
		s-1.4-0.6-2.3-0.6c-0.3,0-0.6,0-1,0c0,3.9,0,6.3,0,7.2c0,0.9,0.2,1.5,0.5,1.9s1,0.6,1.9,0.7c0.5,0,0.7,0.2,0.7,0.5
		s-0.2,0.4-0.6,0.4l-5.1-0.1c-0.7,0-1.6,0-2.6,0.1s-1.6,0.1-1.9,0.1c-0.5,0-0.7-0.2-0.7-0.5s0.2-0.5,0.6-0.5c0.6,0,1.2-0.2,1.7-0.5
		s0.8-1.6,0.8-3.9v-3.1v-6c0-3.1-0.1-5-0.4-5.6c-0.3-0.7-1-1-2.2-1.1c-0.5,0-0.7-0.2-0.7-0.5s0.3-0.5,0.9-0.5c3.1,0,5.8-0.1,7.9-0.2
		c1-0.1,1.8-0.1,2.6-0.1c2.5,0,4.5,0.5,5.9,1.5c1.4,1,2.1,2.3,2.1,3.9c0,1.1-0.3,2.1-1,2.9s-1.5,1.5-2.5,1.9
		C513.9,10.3,512.7,10.5,511.3,10.6z M506.8,10c0.3,0,0.5,0,0.6,0c1,0,1.9-0.2,2.9-0.5c1-0.4,1.7-0.9,2.1-1.7
		c0.4-0.8,0.6-1.6,0.6-2.5c0-1.4-0.4-2.5-1.2-3.2c-0.8-0.8-1.9-1.2-3.2-1.2c-0.5,0-1.2,0.1-1.8,0.3V10z"/>
</g>
</svg>
