<?xml version="1.0" encoding="utf-8"?>
<!-- Generator: Adobe Illustrator 19.1.0, SVG Export Plug-In . SVG Version: 6.00 Build 0)  -->
<svg version="1.1" xmlns="http://www.w3.org/2000/svg" xmlns:xlink="http://www.w3.org/1999/xlink" x="0px" y="0px"
	 viewBox="0 0 200 200" style="enable-background:new 0 0 200 200;" xml:space="preserve">
<style type="text/css">
	.st0{fill:#FFFFFF;}
	.st1{display:none;}
	.st2{display:inline;fill:#CECECE;}
	.st3{display:inline;}
	.st4{fill:#231F20;}
</style>
<g id="Layer_1">
	<g>
		<path class="st0" d="M132.8,71c-10.1-4.4-21.6-6.8-34.2-6.8c-12.6,0-25.2,2.4-35.3,6.8c19.5,0,35.3,15.8,35.3,35.3
			C98.5,87.2,113.8,71.6,132.8,71z"/>
		<path class="st0" d="M133.9,77.9c-15.7,0-28.4,12.7-28.4,28.4c0,15.7,12.7,28.4,28.4,28.4c15.7,0,28.4-12.7,28.4-28.4
			C162.3,90.6,149.6,77.9,133.9,77.9z M133.8,123.3c-9.5,0-17.1-7.7-17.1-17.1c0-9.5,7.7-17.2,17.1-17.2c9.5,0,17.1,7.7,17.1,17.2
			C151,115.6,143.3,123.3,133.8,123.3z"/>
		<path class="st0" d="M63.2,77.9c-15.7,0-28.4,12.7-28.4,28.4c0,15.7,12.7,28.4,28.4,28.4s28.4-12.7,28.4-28.4
			C91.6,90.6,78.9,77.9,63.2,77.9z M62.8,123.4c-9.5,0-17.1-7.7-17.1-17.1c0-9.5,7.7-17.2,17.1-17.2c9.5,0,17.2,7.7,17.2,17.2
			C79.9,115.7,72.3,123.4,62.8,123.4z"/>
		<path class="st0" d="M178.2,71.6c-1.9,0-3.5,1.6-3.5,3.5c0,1.9,1.6,3.5,3.5,3.5c1.9,0,3.5-1.6,3.5-3.5
			C181.6,73.1,180.1,71.6,178.2,71.6z M178.8,77.2l-1-1.9h-0.4v1.9h-1.1v-4.7h1.7c0.8,0,1.9,0.1,1.9,1.4c0,0.6-0.3,1.1-1,1.2
			l1.1,2.1H178.8z"/>
		<path class="st0" d="M100,0C44.8,0,0,44.8,0,100c0,55.2,44.8,100,100,100s100-44.8,100-100C200,44.8,155.2,0,100,0z M169.2,106.3
			c0,19.5-15.8,35.3-35.3,35.3c-11.1,0-20.9-5.1-27.4-13c-2.9,3.5-7.9,11.1-7.9,11.1c-0.9-1.8-5.3-8-7.9-11.1
			c-6.5,8-16.4,13.1-27.4,13.1c-19.5,0-35.3-15.8-35.3-35.3c0-7.8,2.5-14.9,6.8-20.7c-0.7-4-3.4-9.8-7.1-14.1H50
			c12-8.1,29.6-13.2,48.5-13.2c18.9,0,35.3,5.1,47.3,13.2h23.6c-3.7,4.3-6.4,10.1-7.1,14.1C166.7,91.4,169.2,98.6,169.2,106.3z
			 M178.2,79.3c-2.4,0-4.3-1.9-4.3-4.3c0-2.4,1.9-4.3,4.3-4.3c2.4,0,4.3,1.9,4.3,4.3C182.4,77.4,180.5,79.3,178.2,79.3z"/>
		<path class="st0" d="M178.4,73.3c-0.2-0.1-0.3-0.1-0.9-0.1v1.3c0.6,0,0.7,0,0.9-0.1c0.4-0.1,0.4-0.4,0.4-0.6
			C178.7,73.5,178.6,73.4,178.4,73.3z"/>
		<path class="st0" d="M62.8,94.4c-6.6,0-11.9,5.3-11.9,11.9c0,6.6,5.3,11.9,11.9,11.9c6.6,0,11.9-5.3,11.9-11.9
			C74.7,99.7,69.3,94.4,62.8,94.4z M61.9,112c-3.2,0-5.8-2.6-5.8-5.8c0-3.2,2.6-5.8,5.8-5.8s5.8,2.6,5.8,5.8
			C67.7,109.4,65.1,112,61.9,112z"/>
		<path class="st0" d="M133.8,94.3c-6.6,0-11.9,5.3-11.9,11.9c0,6.6,5.3,11.9,11.9,11.9c6.6,0,11.9-5.3,11.9-11.9
			C145.7,99.6,140.4,94.3,133.8,94.3z M133,111.9c-3.2,0-5.8-2.6-5.8-5.8s2.6-5.8,5.8-5.8s5.8,2.6,5.8,5.8S136.2,111.9,133,111.9z"
			/>
	</g>
</g>
<g id="Layer_2" class="st1">
	<circle class="st2" cx="106" cy="136" r="100"/>
	<g class="st3">
		<g>
			<path d="M68.8,125.1c-9.5,0-17.1,7.7-17.1,17.2c0,9.5,7.7,17.1,17.1,17.1c9.5,0,17.2-7.7,17.2-17.1
				C85.9,132.8,78.3,125.1,68.8,125.1z M68.8,154.1c-6.6,0-11.9-5.3-11.9-11.9c0-6.6,5.3-11.9,11.9-11.9c6.6,0,11.9,5.3,11.9,11.9
				C80.7,148.8,75.3,154.1,68.8,154.1z M175.5,107.5h-23.6c-12-8.1-28.5-13.2-47.3-13.2c-18.9,0-36.4,5.1-48.5,13.2H33.6
				c3.7,4.3,6.4,10.1,7.1,14.1c-4.2,5.8-6.8,13-6.8,20.7c0,19.5,15.8,35.3,35.3,35.3c11.1,0,21-5.1,27.4-13.1
				c2.6,3.1,7,9.3,7.9,11.1c0,0,5.1-7.6,7.9-11.1c6.5,8,16.3,13,27.4,13c19.5,0,35.3-15.8,35.3-35.3c0-7.8-2.5-14.9-6.8-20.7
				C169.1,117.6,171.8,111.8,175.5,107.5z M69.2,170.8c-15.7,0-28.4-12.7-28.4-28.4c0-15.7,12.7-28.4,28.4-28.4s28.4,12.7,28.4,28.4
				C97.6,158,84.9,170.8,69.2,170.8z M69.2,107c10.1-4.4,22.7-6.8,35.3-6.8c12.6,0,24.1,2.4,34.2,6.8c-19,0.6-34.2,16.2-34.2,35.3
				C104.5,122.8,88.7,107,69.2,107z M139.9,170.8c-15.7,0-28.4-12.7-28.4-28.4c0-15.7,12.7-28.4,28.4-28.4
				c15.7,0,28.4,12.7,28.4,28.4C168.3,158,155.6,170.8,139.9,170.8z M139.8,125c-9.5,0-17.1,7.7-17.1,17.2c0,9.5,7.7,17.1,17.1,17.1
				c9.5,0,17.1-7.7,17.1-17.1C157,132.7,149.3,125,139.8,125z M139.8,154.1c-6.6,0-11.9-5.3-11.9-11.9c0-6.6,5.3-11.9,11.9-11.9
				s11.9,5.3,11.9,11.9C151.7,148.7,146.4,154.1,139.8,154.1z"/>
			<g>
				<g>
					<path class="st4" d="M183.4,113.2h-1.1v-4.7h1.7c0.8,0,1.9,0.1,1.9,1.4c0,0.6-0.3,1.1-1,1.2l1.1,2.1h-1.2l-1-1.9h-0.4V113.2z
						 M183.4,110.6c0.6,0,0.7,0,0.9-0.1c0.4-0.1,0.4-0.4,0.4-0.6c0-0.3-0.1-0.5-0.3-0.6c-0.2-0.1-0.3-0.1-0.9-0.1V110.6z"/>
				</g>
				<path class="st4" d="M184.2,106.8c-2.4,0-4.3,1.9-4.3,4.3c0,2.4,1.9,4.3,4.3,4.3c2.4,0,4.3-1.9,4.3-4.3
					C188.4,108.7,186.5,106.8,184.2,106.8z M184.2,114.5c-1.9,0-3.5-1.6-3.5-3.5c0-1.9,1.6-3.5,3.5-3.5c1.9,0,3.5,1.6,3.5,3.5
					C187.6,112.9,186.1,114.5,184.2,114.5z"/>
			</g>
		</g>
	</g>
	<path class="st3" d="M67.9,136.5c-3.2,0-5.8,2.6-5.8,5.8c0,3.2,2.6,5.8,5.8,5.8s5.8-2.6,5.8-5.8C73.7,139.1,71.1,136.5,67.9,136.5z
		"/>
	<path class="st3" d="M139,136.4c-3.2,0-5.8,2.6-5.8,5.8s2.6,5.8,5.8,5.8c3.2,0,5.8-2.6,5.8-5.8S142.2,136.4,139,136.4z"/>
</g>
</svg>
