<?xml version="1.0" encoding="utf-8"?>
<!-- Generator: Adobe Illustrator 19.1.0, SVG Export Plug-In . SVG Version: 6.00 Build 0)  -->
<svg version="1.1" id="Layer_1" xmlns="http://www.w3.org/2000/svg" xmlns:xlink="http://www.w3.org/1999/xlink" x="0px" y="0px"
	 viewBox="0 0 36 36" style="enable-background:new 0 0 36 36;" xml:space="preserve">
<style type="text/css">
	.st0{clip-path:url(#SVGID_2_);fill:#FFFFFF;}
</style>
<g>
	<defs>
		<rect id="SVGID_1_" width="36" height="36"/>
	</defs>
	<clipPath id="SVGID_2_">
		<use xlink:href="#SVGID_1_"  style="overflow:visible;"/>
	</clipPath>
	<path class="st0" d="M26.2,14.8c0,0.2,0,0.4,0,0.5c0,5.4-4.1,11.6-11.6,11.6c-2.3,0-4.4-0.7-6.2-1.8c0.3,0,0.6,0.1,1,0.1
		c1.9,0,3.7-0.6,5-1.7c-1.8,0-3.3-1.2-3.8-2.8c0.2,0,0.5,0.1,0.8,0.1c0.4,0,0.7,0,1.1-0.1c-1.9-0.4-3.3-2-3.3-4c0,0,0,0,0-0.1
		c0.5,0.3,1.2,0.5,1.8,0.5c-1.1-0.7-1.8-2-1.8-3.4c0-0.7,0.2-1.4,0.5-2c2,2.5,5,4.1,8.4,4.2c-0.1-0.3-0.1-0.6-0.1-0.9
		c0-2.2,1.8-4.1,4.1-4.1c1.2,0,2.2,0.5,3,1.3c0.9-0.2,1.8-0.5,2.6-1c-0.3,0.9-0.9,1.7-1.8,2.2c0.8-0.1,1.6-0.3,2.3-0.6
		C27.7,13.5,27,14.2,26.2,14.8 M18,0C8.1,0,0,8.1,0,18s8.1,18,18,18s18-8.1,18-18S27.9,0,18,0"/>
</g>
</svg>
